<svg xmlns="http://www.w3.org/2000/svg" xmlns:xlink="http://www.w3.org/1999/xlink" width="329.25" height="474.95" viewBox="0 0 329.25 474.95">
  <defs>
    <linearGradient id="linear-gradient" x1="0.5" x2="0.5" y2="1" gradientUnits="objectBoundingBox">
      <stop offset="0" stop-color="#b15aa2"/>
      <stop offset="1" stop-color="#592d51"/>
    </linearGradient>
  </defs>
  <style>
  
@keyframes sobrancelhas {
  0% {
    transform: translateY(-10);
    -ms-transform: translateY(-10);
    -moz-transform: translateY(-10);
  }

  25% {
    transform: translateY(0px);
    -ms-transform: translateY(0px);
    -moz-transform: translateY(0px);
  }

  75% {
    transform: translateY(0px);
    -moz-transform: translateY(0px);
    -ms-transform: translateY(0px);
  }

  100% {
    transform: translateY(10);
    -moz-transform: translateY(10);
    -ms-transform: translateY(10);
  }
}

#nariz {
  transform: translateY(-9px);
  -ms-transform: translateY(-9px);
  -moz-transform: translateY(-9px);
  animation: nariz 5s linear infinite;
}

@keyframes nariz {
  0% {
    transform: translateY(-10);
    -ms-transform: translateY(-10);
    -moz-transform: translateY(-10);
  }

  25% {
    transform: translateY(0px);
    -ms-transform: translateY(0px);
    -moz-transform: translateY(0px);
  }

  75% {
    transform: translateY(0px);
    -moz-transform: translateY(0px);
    -ms-transform: translateY(0px);
  }

  100% {
    transform: translateY(10);
    -moz-transform: translateY(10);
    -ms-transform: translateY(10);
  }
}

#boca {
  transform: translateY(-5px);
  -ms-transform: translateY(-5px);
  -moz-transform: translateY(-5px);
  animation: boca 5s linear infinite;
}

@keyframes boca {
  0% {
    transform: translateY(-10);
    -ms-transform: translateY(-10);
    -moz-transform: translateY(-10);
  }

  25% {
    transform: translateY(0px);
    -ms-transform: translateY(0px);
    -moz-transform: translateY(0px);
  }

  75% {
    transform: translateY(0px);
    -moz-transform: translateY(0px);
    -ms-transform: translateY(0px);
  }

  100% {
    transform: translateY(10);
    -moz-transform: translateY(10);
    -ms-transform: translateY(10);
  }
}

#olhos {
  transform: translateX(-2px);
  -moz-transform: translateX(-2px);
  -ms-transform: translateX(-2px);
  animation: olhos 2s linear infinite;
}

@keyframes olhos {
  0% {
    transform: translateX(-2);
    -ms-transform: translateX(-2);
    -moz-transform: translateX(-2);
  }

  25% {
    transform: translateX(2px);
    -moz-transform: translateX(2px);
    -ms-transform: translateX(2px);
  }

  75% {
    transform: translateX(-2px);
    -ms-transform: translateX(-2px);
    -moz-transform: translateX(-2px);
  }

  100% {
    transform: translateX(2);
    -ms-transform: translateX(2);
    -moz-transform: translateX(2);
  }
}

#notebook {
  transform: translateY(-4px);
  -moz-transform: translateY(-4px);
  -ms-transform: translateY(-4px);
  animation: notebook 6s linear infinite;
}

@keyframes notebook {
  0% {
    transform: translateY(-4);
  }

  25% {
    transform: translateY(0px);
  }

  75% {
    transform: translateY(0px);
  }

  100% {
    transform: translateY(4);
  }
}

#pernas {
  transform: translateY(-9px);
  animation: pernas 6s infinite;
}

@keyframes pernas {
  0% {
    transform: translateY(-10);
    -ms-transform: translateY(-10);
    -moz-transform: translateY(-10);
  }

  25% {
    transform: translateY(0px);
    -ms-transform: translateY(0px);
    -moz-transform: translateY(0px);
  }

  75% {
    transform: translateY(0px);
    -moz-transform: translateY(0px);
    -ms-transform: translateY(0px);
  }

  100% {
    transform: translateY(10);
    -moz-transform: translateY(10);
    -ms-transform: translateY(10);
  }
}

#pe {
  animation: pe 6s infinite;
}

@keyframes pe {
  0% {
    transform: rotateX(2deg);
    -ms-transform: rotateX(2deg);
    -moz-transform: rotateX(2deg);
  }

  25% {
  }

  75% {
  }

  100% {
  }
}

#camisas {
  transform: translateY(-9px);
  -ms-transform: translateY(-9px);
  -moz-transform: translateY(-9px);
  animation: camisas 6s infinite;
}

@keyframes camisas {
  0% {
    transform: translateY(-10);
    -ms-transform: translateY(-10);
    -moz-transform: translateY(-10);
  }

  25% {
    transform: translateY(0px);
    -ms-transform: translateY(0px);
    -moz-transform: translateY(0px);
  }

  75% {
    transform: translateY(0px);
    -moz-transform: translateY(0px);
    -ms-transform: translateY(0px);
  }

  100% {
    transform: translateY(10);
    -moz-transform: translateY(10);
    -ms-transform: translateY(10);
  }
}

#camisacostas {
  transform: translateY(-9px);
  -ms-transform: translateY(-9px);
  -moz-transform: translateY(-9px);
  animation: camisacostas 6s infinite;
}

@keyframes camisacostas {
  0% {
    transform: translateY(-10);
    -ms-transform: translateY(-10);
    -moz-transform: translateY(-10);
  }

  25% {
    transform: translateY(0px);
    -ms-transform: translateY(0px);
    -moz-transform: translateY(0px);
  }

  75% {
    transform: translateY(0px);
    -moz-transform: translateY(0px);
    -ms-transform: translateY(0px);
  }

  100% {
    transform: translateY(10);
    -moz-transform: translateY(10);
    -ms-transform: translateY(10);
  }
}

#cabeca {
  transform: translateY(-9px);
  -ms-transform: translateY(-9px);
  -moz-transform: translateY(-9px);
  animation: cabeca 6s infinite;
}

@keyframes cabeca {
  0% {
    transform: translateY(-8);
  }

  25% {
    transform: translateY(0px);
  }

  75% {
    transform: translateY(0px);
  }

  100% {
    transform: translateY(8);
  }
}

#macae {
  opacity: 1;
  animation: macae 2s linear;
}

@keyframes macae {
  0% {
    opacity: 0.2;
  }

  25% {
  }

  75% {
  }

  100% {
  }
}

#luzmacae {
  animation: luzmacae 5s;
}

@keyframes luzmacae {
  0% {
    opacity: 0.2;
  }

  25% {
    opacity: 1;
  }

  75% {
    opacity: 1;
  }

  100% {
    opacity: 0.2;
  }
}

#orelhas {
  animation: orelhas 6s linear infinite;
}

@keyframes orelhas {
  0% {
    transform: translateY(-10);
    -ms-transform: translateY(-10);
    -moz-transform: translateY(-10);
  }

  25% {
    transform: translateY(0px);
    -ms-transform: translateY(0px);
    -moz-transform: translateY(0px);
  }

  75% {
    transform: translateY(0px);
    -moz-transform: translateY(0px);
    -ms-transform: translateY(0px);
  }

  100% {
    transform: translateY(10);
    -moz-transform: translateY(10);
    -ms-transform: translateY(10);
  }
}

#sombras {
  animation: sombras 6.1s linear infinite;
}

@keyframes sombras {
  0% {
    transform: scale(0.96);
  }

  25% {
    transform: scale(1);
  }

  75% {
    transform: scale(1);
  }

  100% {
    transform: scale(0.96);
  }
}

  </style>
  <g id="notest" transform="translate(-8.75 -31.65)">
    <g id="camisacostas">
      <path id="Path_1" data-name="Path 1" d="M214.7,275.5c-8.3,0-23.5-7.9-25-13a2.409,2.409,0,0,1,1.2-2.8c2.9-1.8,7.9-2.8,15-2.8a114.694,114.694,0,0,1,17.5,1.5c0,.8-.4,6-3.4,14.4-.7,1.8-2.4,2.7-5.3,2.7Z" fill="#383838"/>
      <path id="Path_2" data-name="Path 2" d="M205.8,257a128.475,128.475,0,0,1,17.4,1.4,55.747,55.747,0,0,1-3.4,14.2c-.6,1.7-2.3,2.6-5.2,2.6-8.3,0-23.4-7.8-24.9-12.9a2.169,2.169,0,0,1,1.1-2.6q4.5-2.7,15-2.7m0-.2c-5.8,0-11.7.6-15,2.8-6.8,4.2,13.5,16,23.9,16,2.7,0,4.7-.8,5.4-2.7,3.4-9.3,3.4-14.5,3.4-14.5a113.213,113.213,0,0,0-17.7-1.6Z" fill="#2d2d2d"/>
    </g>
    <g id="antebracos">
      <path id="Path_3" data-name="Path 3" d="M264.5,310.6s3.3,23.5,0,27.7-14.5,0-16-5.8l-1.5-5.8s-.2-6.8,2.9-9.2,3.4-2.7,3.4-2.7Z" fill="#d3b39b"/>
      <path id="Path_4" data-name="Path 4" d="M149.5,310.6s-3.3,23.5,0,27.7,14.5,0,16-5.8l1.5-5.8s.2-6.8-2.9-9.2-3.4-2.7-3.4-2.7Z" fill="#d3b39b"/>
    </g>
    <g id="sombras" opacity="0.2">
      <path id="Path_5" data-name="Path 5" d="M88.5,495.1c0-1.2,1.9-1.8,5.4-2.8,6.2-1.8,17.3-4,32-5.3,22.5-2,53.4-2,87.4-3.3,19.6-.7,41.2,1,58.8,1.9,39.1,1.9,65.9,5.2,65.9,9.6s-26.9,8.2-66.4,10.1c-7.3.4-16.1-.5-24.2-.3-11.1.3-21.9,1.6-34.1,1.6-4.2,0-8.4,0-12.6-.1-9.2-.1-18.1-.3-26.6-.5C124.3,504.4,88.5,500.1,88.5,495.1Z" fill="#0a0a0a"/>
    </g>
    <g id="cabeca">
      <g id="pescoco">
        <rect id="Rectangle_1" data-name="Rectangle 1" width="27" height="47" transform="translate(192.5 237.5)" fill="#e1bfa3"/>
      </g>
      <path id="Path_6" data-name="Path 6" d="M191.4,262.5c-.1,4.6,25.5,9.1,29.6-.5,0,0-1,6.9-2.8,8.3-1.8,1.3-12,8.5-12,8.5s-12.8-2.9-14.1-7.2A25.234,25.234,0,0,1,191.4,262.5Z" opacity="0.1"/>
      <g id="orelhas">
        <g id="Group_3" data-name="Group 3">
          <g id="Group_1" data-name="Group 1">
            <path id="Path_7" data-name="Path 7" d="M265.5,203.7h0a8.873,8.873,0,0,0-8.6-9.2H245.4l-6.2,18.6c0,.2,9.4.4,9.5.4h8.2C261.5,213.5,265.5,208.9,265.5,203.7Z" fill="#e1bfa3"/>
          </g>
          <g id="Group_2" data-name="Group 2" opacity="0.06">
            <path id="Path_8" data-name="Path 8" d="M253,198.8a6.286,6.286,0,0,1,2.6-.5,4.928,4.928,0,0,1,2.9.8,3.531,3.531,0,0,1,1.3,1.4,3.178,3.178,0,0,1,.3.9c.1.2.1.5.2.8a7.363,7.363,0,0,1-.1,3.3,4.714,4.714,0,0,1-.6,1.5,3.331,3.331,0,0,1-.9,1.1,2.443,2.443,0,0,1-2,.6,1.73,1.73,0,0,1-.7-.1,3.05,3.05,0,0,0,1.9-1.3,7.417,7.417,0,0,0,.5-4.8c0-.2-.1-.5-.1-.7a.764.764,0,0,0-.2-.5,4.7,4.7,0,0,0-.6-.9,6.44,6.44,0,0,0-2-1.1A15.087,15.087,0,0,0,253,198.8Z"/>
          </g>
        </g>
        <g id="Group_6" data-name="Group 6">
          <g id="Group_4" data-name="Group 4">
            <path id="Path_9" data-name="Path 9" d="M145.5,203.7h0a8.89,8.89,0,0,1,8.7-9.2h11.5l6.2,18.6c0,.2-9.4.4-9.5.4h-8.2C149.5,213.5,145.5,208.9,145.5,203.7Z" fill="#e1bfa3"/>
          </g>
          <g id="Group_5" data-name="Group 5" opacity="0.08">
            <path id="Path_10" data-name="Path 10" d="M157.3,198.8s-1.1.2-2.5.6a4.9,4.9,0,0,0-2,1.1c-.3.2-.4.6-.6.9,0,.2-.1.3-.2.5,0,.3-.1.5-.1.7-.3,1.8-.2,3.8.5,4.8.7,1.1,2,1.2,1.9,1.3a1.73,1.73,0,0,1-.7.1,3.48,3.48,0,0,1-2-.6,3.126,3.126,0,0,1-.9-1.1,3.387,3.387,0,0,1-.6-1.5,9.163,9.163,0,0,1-.1-3.3,2.354,2.354,0,0,1,.2-.8l.3-.9a3.531,3.531,0,0,1,1.3-1.4,4.754,4.754,0,0,1,2.9-.8A5.493,5.493,0,0,1,157.3,198.8Z"/>
          </g>
        </g>
      </g>
      <g id="Group_7" data-name="Group 7" opacity="0.1">
        <path id="Path_11" data-name="Path 11" d="M191.6,246.7l27.9,1.1V250s-20,6-27,3.4v-5.6Z"/>
      </g>
      <g id="queixo">
        <path id="Path_12" data-name="Path 12" d="M160.8,205.3c0-24.9,20.2,6.3,45.1,6.3s45.1-31.2,45.1-6.3a45.1,45.1,0,0,1-90.2,0Z" fill="#e1bfa3"/>
      </g>
      <g id="face">
        <path id="Path_13" data-name="Path 13" d="M250.5,198.9a27.591,27.591,0,0,1-27.6,27.6H189.2a27.591,27.591,0,0,1-27.6-27.6V165.1a27.591,27.591,0,0,1,27.6-27.6h33.7a27.591,27.591,0,0,1,27.6,27.6Z" fill="#e1bfa3"/>
      </g>
      <g id="sombratesta" opacity="0.1">
        <path id="Path_14" data-name="Path 14" d="M238.8,156.7s-35.1,17.4-63.8,2.1c0,0-10.7,12.6-11.3,13.1a16.861,16.861,0,0,1-3.6,1.1l-2.1-8.8,9.1-11.3,4-1.1,41.2,3.2,26.3.2Z"/>
      </g>
      <g id="boca">
        <path id="Path_15" data-name="Path 15" d="M214.2,221.5a3.072,3.072,0,0,1,.8,2.1,4.174,4.174,0,0,1-.6,2.3,3.126,3.126,0,0,1-.9,1.1,14.8,14.8,0,0,1-1.3.8,4.877,4.877,0,0,1-1.4.3,5.9,5.9,0,0,1-1.4-.2,4.352,4.352,0,0,1-2-1.3,3.919,3.919,0,0,1-.8-2.1,1.2,1.2,0,0,0,.4.4,2.421,2.421,0,0,0,1.1.8,4.284,4.284,0,0,0,1.6.5h.9a3.712,3.712,0,0,0,.9-.2,5.9,5.9,0,0,0,.8-.4c.2-.2.5-.4.7-.6a4.617,4.617,0,0,0,.9-1.5,3.915,3.915,0,0,0,.3-1.3Z" fill="#ce9a74"/>
      </g>
      <g id="cabelo">
        <g id="lados">
          <g id="Group_8" data-name="Group 8">
            <path id="Path_16" data-name="Path 16" d="M171.4,157s-5.9,10-9,13.8c0,0,3.9,26.7-1.7,32.6a30.36,30.36,0,0,0-2.6-5.4c-1.8-3.1-6.5-37.2-4.7-42.3s6.1-13.8,12-12.8C171.4,144,171.4,157,171.4,157Z" fill="#20106d"/>
          </g>
          <g id="Group_9" data-name="Group 9">
            <path id="Path_17" data-name="Path 17" d="M251,204.4l.1.1s6.8-27.6,6-36.6-3.3-18.7-5.1-21.7c-1.8-3.1-10.7-5.6-12-2.8s-6.1,9-6.1,9,12.5,12,13,14.8c.4,2.1.5,15.3-.1,24.2A17.377,17.377,0,0,0,251,204.4Z" fill="#20106d"/>
          </g>
          <g id="Group_10" data-name="Group 10">
            <path id="Path_18" data-name="Path 18" d="M171.2,155.4s-5.6,11.5-9.6,14c0,0,7.8-12.3,8-14l.2-1.8Z" fill="#3d332d"/>
          </g>
          <g id="Group_11" data-name="Group 11">
            <path id="Path_19" data-name="Path 19" d="M160.8,203.5s-3.2-13.9-3.2-15.6c0-1.8.2-4.9.2-4.9s-1.8,8.3,0,14.2Z" fill="#3d332d"/>
          </g>
          <g id="Group_12" data-name="Group 12">
            <path id="Path_20" data-name="Path 20" d="M249,184.8s-.2,11,1.4,14.5l.5-2.7Z" fill="#3d332d"/>
          </g>
        </g>
        <g id="franja">
          <g id="Group_13" data-name="Group 13">
            <path id="Path_21" data-name="Path 21" d="M159.9,149.6s33.5,22.5,72.7,7.7c0,0,17.4-1.8,22.3-11.8,0,0-6.1,1-7.2,1-1,0,4.6-6.7,4.9-16.9s-3.3-13.6-3.3-13.6-5.9,10-10.5,11c0,0,2.6-8.7,2.3-13.3a28.228,28.228,0,0,1,0-6.1s-8.2,12-36.8,13.8c-28.7,1.8-39.1,3.1-43.2,7.7s-4.1,12.8-3.3,15.6A21.607,21.607,0,0,0,159.9,149.6Z" fill="#20106d"/>
          </g>
          <g id="Group_14" data-name="Group 14">
            <path id="Path_22" data-name="Path 22" d="M160.6,145.9c.2-1.2-2.6-8.1,1.2-11.7s15.3-6.9,23.5-7.2c8.1-.2,29.2-1.7,34.2-3.4a23.484,23.484,0,0,0,7.4-3.8s-2.6,6.9-37.8,10.3C153.9,133.4,160.6,145.9,160.6,145.9Z" fill="#0666bd"/>
          </g>
          <g id="Group_15" data-name="Group 15">
            <path id="Path_23" data-name="Path 23" d="M241.7,127.7s-8,7-26,9.3c-18,2.2-24.6,4.9-24.6,4.9s32.5-3.5,34.6-3.7C227.8,138.1,238.6,137.9,241.7,127.7Z" fill="#0666bd"/>
          </g>
          <g id="Group_16" data-name="Group 16">
            <path id="Path_24" data-name="Path 24" d="M170.7,147.8s12,2.9,15.3,2.6c3.4-.2,9.1-2.2,9.1-2.2S190.1,155.9,170.7,147.8Z" fill="#3d332d"/>
          </g>
          <g id="Group_17" data-name="Group 17">
            <path id="Path_25" data-name="Path 25" d="M241,107.6s-5.2,12.9-6.7,14.1c-1.4,1.2-4.5,3.8-4.5,3.8s7.7-2.9,9.8-9.1Z" fill="#3d332d"/>
          </g>
          <g id="Group_18" data-name="Group 18">
            <path id="Path_26" data-name="Path 26" d="M237.7,156.4s15.1-5.8,17.1-10.9c0,0-19.7,11-22.3,11.8Z" fill="#0666bd"/>
          </g>
        </g>
      </g>
      <g id="sobrancelhas">
        <g id="Group_19" data-name="Group 19">
          <path id="Path_27" data-name="Path 27" d="M171.6,182s16.8-9.6,14.2-12.2S171.6,182,171.6,182Z" fill="#3d332d"/>
        </g>
        <g id="Group_20" data-name="Group 20">
          <path id="Path_28" data-name="Path 28" d="M238.5,181.5s-16.8-9.6-14.2-12.2C226.9,166.8,238.5,181.5,238.5,181.5Z" fill="#3d332d"/>
        </g>
      </g>
      <g id="nariz">
        <path id="Path_29" data-name="Path 29" d="M202.1,176.2s-.1.8-.3,2.2-.5,3.4-.8,5.8c-.4,2.4-.7,5.2-1.2,8.1q-.75,4.5-1.5,9.3c-.5,3.2-1,6.3-1.4,9.3-.1.7-.2,1.5-.3,2.2a14.157,14.157,0,0,0-.1,1.9c.1.4.6.8,1.1,1.2a11.938,11.938,0,0,0,1.6.8,47.039,47.039,0,0,0,5.5,1.6c1.4.3,2.2.5,2.2.5a17.317,17.317,0,0,1-2.2-.2,28.336,28.336,0,0,1-5.8-1.1,13.354,13.354,0,0,1-1.8-.7,3.113,3.113,0,0,1-1.7-1.7,6.432,6.432,0,0,1,0-2.4c.1-.7.1-1.5.2-2.2.4-3,.8-6.2,1.3-9.4.6-3.2,1.1-6.3,1.6-9.3.6-3,1.2-5.7,1.6-8.1.5-2.4,1-4.3,1.3-5.7A20.111,20.111,0,0,0,202.1,176.2Z" fill="#917b6a"/>
      </g>
      <g id="olhos">
        <circle id="Ellipse_1" data-name="Ellipse 1" cx="2.4" cy="2.4" r="2.4" transform="translate(183 201.6)" fill="#3d332d"/>
        <circle id="Ellipse_2" data-name="Ellipse 2" cx="2.4" cy="2.4" r="2.4" transform="translate(221.5 201.6)" fill="#3d332d"/>
      </g>
      <circle id="Ellipse_3" data-name="Ellipse 3" cx="66.7" cy="66.7" r="66.7" transform="translate(9 31.9)" fill="#fff" stroke="#333" stroke-miterlimit="10" stroke-width="0.5"/>
      <circle id="Ellipse_4" data-name="Ellipse 4" cx="15.3" cy="15.3" r="15.3" transform="translate(106.9 124.4)" fill="#fff" stroke="#333" stroke-miterlimit="10" stroke-width="0.418"/>
      <circle id="Ellipse_5" data-name="Ellipse 5" cx="8.3" cy="8.3" r="8.3" transform="translate(129.2 143.7)" fill="#fff" stroke="#333" stroke-miterlimit="10" stroke-width="0.5"/>
      <path id="Path_30" data-name="Path 30" d="M33.1,112.6c0,3,1.7,5.6,4.7,5.6,5.6,0,9.3-1.6,14.1-3.9a125.3,125.3,0,0,0,14.4-7.9c1.3-.7,2.9-1.5,3.1-2.5-2.2.2-13.4,5.4-18.6,2.7-6.1-2.9,5.7-17.4,7.4-19.7L62.3,82c.6-.7,1-.8,1.7-1.5,8-7.9,32.6-27.7,43.7-21.8a9.908,9.908,0,0,1,1.7,1.1c.7.6,1,1.1,1.8,1.4,1.7-3.2,2.7-10.5-3.9-10.5-8.2,0-18.2,5.9-25.1,9.5a101.367,101.367,0,0,0-10.5,6.4A146.437,146.437,0,0,0,55.2,79.5c-.8.8-1.4,1.4-2.2,2.1a21.315,21.315,0,0,0-2.2,2.1c-.8.8-1.1,1.4-1.9,2.2-5.1,5-15.8,19.3-15.8,26.7Z" fill="#3f95e9"/>
      <path id="Path_31" data-name="Path 31" d="M78.1,98.9c.7.3.9,0,1.7-.2l5.6-2.3c2.3-.8,11.1-3.5,13.6-.7,3.2,3.5-.7,10.9-2.5,13.5l-4.3,5.1c-1,1-1.4,1.7-3.1,3.3l-6.7,5.9c-.6.5-1.1,1-1.7,1.5a305.122,305.122,0,0,1-26.1,18.4c-1.3.8-7.2,4.3-7.8,5,2.4,0,8.9-3.7,11.1-4.8,5.7-2.9,15.4-8.1,20.7-11.5,1.7-1.1,3.2-1.9,4.9-3.1,1.7-1.1,3.2-2.2,4.8-3.3,3.1-2.2,6.1-4.7,9-7.1.5-.3.6-.6,1-.9a68.131,68.131,0,0,0,14.3-16c2.1-3.3,7.8-15.4.6-17.9-5.7-2.1-16.3,3.5-20.2,5.8L85.3,94c-1.2.8-6.6,4.1-7.2,4.9Z" fill="#040404"/>
      <path id="Path_32" data-name="Path 32" d="M105.2,72.7c0,3,3.1,5.3,5.7,6.1,9.6,2.9,18.4-5.6,10.6-10.6-5.8-3.8-16.3-1.2-16.3,4.5Z" fill="#040404"/>
    </g>
    <g id="camisas">
      <path id="Path_33" data-name="Path 33" d="M224.9,263.8s35.4,13.8,38.3,40.9l-11,11.5s-.5,67.7,1.9,71.6c0,0-20.1,12.2-33.3,15.1s-40-2.2-43.1-3.6-15.3-10.8-15.3-10.8,2.6-9.8,2.4-13.9.5-27.5.2-31.8c-.2-4.3-1.2-19.9-1.2-19.9l-15.3-14.4s7.6-41.2,38.7-42.3c0,0,13,15.5,15.6,15.5s3.1,6.2,3.1,6.2,3.1-6.3,11-15.2Z" fill="#b15aa2"/>
      <g id="Group_21" data-name="Group 21">
        <path id="Path_34" data-name="Path 34" d="M149.8,309.6l-2.6,3.9L164,327.6l.8-1.8-.6-3.6Z" fill="#353535"/>
      </g>
      <g id="Group_22" data-name="Group 22">
        <path id="Path_35" data-name="Path 35" d="M252.1,316.1l10.4-10.8,3.8,6.9-14.2,12.6Z" fill="#353535"/>
      </g>
      <g id="gola">
        <g id="Group_23" data-name="Group 23">
          <path id="Path_36" data-name="Path 36" d="M196,278.8l-.2-8.2,7.7.8,1.9,1.4s2.3,4.6,2.1,8.8c-.2,4.1-4.6,5-4.6,5Z" fill="#515151"/>
        </g>
        <g id="Group_24" data-name="Group 24">
          <path id="Path_37" data-name="Path 37" d="M208.8,271s-5.4,15.2-5.6,23.3l.5,6.4,8.9.2-1-8.8s6.7-11,7.7-12C220.3,279.2,217.1,268.5,208.8,271Z" fill="#515151"/>
        </g>
        <g id="Group_27" data-name="Group 27">
          <g id="Group_26" data-name="Group 26">
            <g id="Group_25" data-name="Group 25">
              <path id="Path_38" data-name="Path 38" d="M196.7,285.7c-4.3-4.1-12.4-18.1-12.5-18.2.4-2.1,5.6-7,6.5-7.7a.31.31,0,0,0,.1.2,12.186,12.186,0,0,0,3.5,3c.7.1,10.6,6.3,11.4,7.1.6.6.8,4.1.9,6-.3-.8-1-2.1-1.2-2.8-.2-.5-.7-.8-1.6-.8a14.769,14.769,0,0,0-4.5,1c-2.8,1-2.7,7.5-2.7,10.7A9.232,9.232,0,0,1,196.7,285.7Z" fill="#515151"/>
              <path id="Path_39" data-name="Path 39" d="M190.6,259.9h0a10.483,10.483,0,0,0,3.6,3.1c.7.1,10.6,6.3,11.4,7.1.4.4.7,3.1.8,5.3-.3-.7-.7-1.7-.9-2.2-.2-.6-.8-.9-1.7-.9a14.2,14.2,0,0,0-4.5,1c-2.9,1-2.8,7.4-2.8,10.8v1.2c-4.1-4.1-11.5-16.7-12.2-17.9.6-2,5.2-6.6,6.3-7.5m.2-.4c-.3,0-6.2,5.7-6.7,8,0,0,8.3,14.4,12.6,18.3h0c.4,0-.9-11,2.7-12.3a14.3,14.3,0,0,1,4.4-1c.9,0,1.3.2,1.5.7.3,1,1.4,3.4,1.4,3.4s-.2-5.9-1-6.7a120.726,120.726,0,0,0-11.5-7.2c-.7-.1-3.6-2.7-3.4-3.2Z" fill="#2d2d2d"/>
            </g>
          </g>
        </g>
        <g id="Group_28" data-name="Group 28">
          <path id="Path_40" data-name="Path 40" d="M216.5,280.6s-5.2-4.5-6.8-4.2-4.2,5.5-4.5,6.2c-.2.7-1,18.7-.4,20.6l-.7-.1s.6-20.3.6-21c.1-.7,2-5.5,2-5.5l2.1-5.6S216.1,266.8,216.5,280.6Z" fill="#353535"/>
        </g>
        <g id="Group_29" data-name="Group 29">
          <circle id="Ellipse_6" data-name="Ellipse 6" cx="2.2" cy="2.2" r="2.2" transform="translate(206.4 281)" fill="#bcbcbc"/>
        </g>
        <g id="Group_30" data-name="Group 30">
          <circle id="Ellipse_7" data-name="Ellipse 7" cx="2" cy="2" r="2" transform="translate(206.7 289.3)" fill="#bcbcbc"/>
        </g>
        <g id="Group_33" data-name="Group 33">
          <g id="Group_32" data-name="Group 32">
            <g id="Group_31" data-name="Group 31">
              <path id="Path_41" data-name="Path 41" d="M216.7,288.1c.2-2.4.7-12.4-2.8-16.2a4.262,4.262,0,0,0-3.1-1.4,5.019,5.019,0,0,0-1.2.2c2.5-1.7,11.3-8,12.6-10.6l1.4-1.7c.5.2,3.5,1.6,7.3,8.3Z" fill="#515151"/>
              <path id="Path_42" data-name="Path 42" d="M223.6,258.6c.7.3,3.5,1.9,7.1,8.1l-13.9,20.9c.2-3,.4-12.2-2.8-15.8a4.221,4.221,0,0,0-3.2-1.5h-.7c3-2.1,10.8-7.8,12.2-10.3l1.3-1.4m-.1-.3-1.4,1.8c-1.6,3-13.2,11-13.2,11a8.094,8.094,0,0,1,1.9-.4c7.4,0,5.7,17.9,5.7,17.9L231,266.7c-4.3-7.5-7.5-8.4-7.5-8.4Z" fill="#2d2d2d"/>
            </g>
          </g>
        </g>
      </g>
      <g id="Group_34" data-name="Group 34" opacity="0.14">
        <path id="Path_43" data-name="Path 43" d="M165.9,377s-.7,5.3-1.4,6.9c-.7,1.7,24.4,11.5,24.4,11.5Z"/>
      </g>
    </g>
    <g id="Group_35" data-name="Group 35">
      <path id="Path_44" data-name="Path 44" d="M130.6,351" fill="#e6b99b"/>
    </g>
    <path id="Path_45" data-name="Path 45" d="M153.2,334.2s6.5-6.7,15.8,1c9.2,7.7,2.2,12-4.1,12.7l-6.3.7a49.426,49.426,0,0,1-7.3-2.2,5.124,5.124,0,0,1-3.1-4.7l.1-7Z" fill="#d3b39b"/>
    <path id="Path_46" data-name="Path 46" d="M260.3,334.2s-6.5-6.7-15.8,1c-9.2,7.7-2.2,12,4.1,12.7l6.3.7a67.015,67.015,0,0,0,6.5-2.2,5.975,5.975,0,0,0,3.8-5.6v-5.5Z" fill="#e1bfa3"/>
    <g id="maos">
      <path id="esquerda" d="M259.1,351.9s8.2-4,5.2-10.6-15.5-14.6-18-13.8-16.7,14-16.5,15.4,4.6.8,5.6.4-.2,0,4.4,3C244.3,349.3,255.1,353.4,259.1,351.9Z" fill="#e1bfa3"/>
      <path id="direita" d="M153.3,340.3s10.5-9,13-10.2,10.6-1.8,12.8-4.6c2.3-2.8,1.7,4-2.5,7,0,0,8.3,10.5,8.9,13.2.7,2.7-4.4,0-4.4,0s-12.3,5.4-13.5,4.8a4.684,4.684,0,0,0-3,0,5.468,5.468,0,0,1-6-3l-2.3-4Z" fill="#e1bfa3"/>
    </g>
    <g id="pernas">
      <g id="Group_36" data-name="Group 36">
        <path id="Path_47" data-name="Path 47" d="M102.7,392.3s-1.9-11.2,8-15,37,3.2,64.8,18.5,69.9-5.1,98-14.7,45.9-10.1,49.3.9c0,0-24.7,39.3-45.5,40.6s-48.2-1-48.2-1l-31.9.6s-24.3,8.6-28.7,8.3C164,430.2,107.8,414.3,102.7,392.3Z" fill="url(#linear-gradient)"/>
      </g>
      <g id="Group_37" data-name="Group 37">
        <path id="Path_48" data-name="Path 48" d="M178.2,422.1s20.3-12,21.9-11.5,6.9,5.9,9.1,6.9,1.6,3.7,1.6,3.7l-3,9.3-22.3-1.9Z" fill="#2b2b2b"/>
      </g>
      <g id="Group_38" data-name="Group 38">
        <path id="Path_49" data-name="Path 49" d="M221.9,430.1l-20.6.9,5.6-11,17.7-.4-.9,11.6Z" fill="#e1bfa3"/>
      </g>
      <g id="Group_39" data-name="Group 39">
        <path id="Path_50" data-name="Path 50" d="M206,418.9l8.3.8L213,431.5l-10.6-2.2Z" fill="#eaeaea"/>
      </g>
      <g id="notebook">
        <g id="Group_42" data-name="Group 42">
          <g id="Group_40" data-name="Group 40">
            <path id="Path_51" data-name="Path 51" d="M299.5,384.1a3.372,3.372,0,0,1-3.4,3.4H120.9a3.372,3.372,0,0,1-3.4-3.4v-1.3a3.372,3.372,0,0,1,3.4-3.4H296.2a3.372,3.372,0,0,1,3.4,3.4v1.3Z" fill="#898989"/>
          </g>
          <g id="Group_41" data-name="Group 41">
            <path id="Path_52" data-name="Path 52" d="M299.5,378.7a6.744,6.744,0,0,1-6.8,6.8H124.3a6.744,6.744,0,0,1-6.8-6.8V275.3a6.744,6.744,0,0,1,6.8-6.8H292.7a6.744,6.744,0,0,1,6.8,6.8Z"/>
          </g>
        </g>
        <g id="macae" opacity="0.202">
          <path id="Path_53" data-name="Path 53" d="M212.4,317.3a5.9,5.9,0,0,0,1.4-4.3,6.079,6.079,0,0,0-4,2.1,5.522,5.522,0,0,0-1.4,4.2,5.221,5.221,0,0,0,4-2" fill="#fff"/>
          <path id="Path_54" data-name="Path 54" d="M215.8,327.4a6.49,6.49,0,0,1,2.9-5.2,6.715,6.715,0,0,0-4.9-2.7c-2.1-.2-4.1,1.2-5.2,1.2s-2.7-1.2-4.5-1.2a6.489,6.489,0,0,0-5.6,3.4c-2.4,4.1-.6,10.3,1.7,13.6,1.1,1.6,2.5,3.5,4.3,3.4,1.7-.1,2.4-1.1,4.4-1.1,2.1,0,2.7,1.1,4.5,1.1s3-1.7,4.1-3.3a18.7,18.7,0,0,0,1.9-3.9c0,.1-3.6-5.3-3.6-5.3" fill="#fff"/>
        </g>
        <path id="luzmacae" d="M225.7,328.7a17.045,17.045,0,0,1-2,8.1,17.232,17.232,0,1,1,.8-14.4,16.33,16.33,0,0,1,1.2,5.4l.2.3v.3Z" fill="none" opacity="0.202"/>
      </g>
      <g id="Group_43" data-name="Group 43" opacity="0.1">
        <path id="Path_55" data-name="Path 55" d="M222.8,430l-3.4.2,2.4-10.6,1.2-.1Z"/>
      </g>
      <g id="Group_44" data-name="Group 44">
        <path id="Path_56" data-name="Path 56" d="M222.7,415.9l-1,27.8s55.2-2.9,87.4-33.8,2.2-37,2.2-37-10.2-.6-10.2,1.3C301.2,376,278.9,408.9,222.7,415.9Z" fill="url(#linear-gradient)"/>
      </g>
      <g id="Group_45" data-name="Group 45">
        <path id="Path_57" data-name="Path 57" d="M216.3,438.5s24.9-2.1,25.4-1.6,3.8,8.9,3.8,8.9l-34,1.4s1.1-5.3,1.8-6.5C213.9,439.5,216.3,438.5,216.3,438.5Z" fill="#e1bfa3"/>
      </g>
      <g id="Group_46" data-name="Group 46">
        <path id="Path_58" data-name="Path 58" d="M217.9,450c.9-.2-1.6-23.3-1.6-23.3S148,421.6,118,381.1h0c-1.5-2.9-6.7-5.8-9.3-3.9l-2.3,1c-8.7,6.3-7.5,19.3-1.7,28.4A61.875,61.875,0,0,0,119,421.9C140.4,438.5,175.8,457.7,217.9,450Z" fill="url(#linear-gradient)"/>
      </g>
      <g id="Group_47" data-name="Group 47" opacity="0.1">
        <path id="Path_59" data-name="Path 59" d="M237.4,446.3l-4.7.1,1.1-9.4,2.6,3.4Z"/>
      </g>
      <g id="Group_48" data-name="Group 48">
        <path id="Path_60" data-name="Path 60" d="M244.2,447.6l-7.8-.8-3-10,9.4-.5Z" fill="#eaeaea"/>
      </g>
      <g id="pe">
        <g id="Group_49" data-name="Group 49">
          <path id="Path_61" data-name="Path 61" d="M237.9,436c-.7-.5,12.3-10.4,13.4-10.2s11.6,9.4,12.8,9.4c1.1,0,27.8,8.5,25.2,16.4l-25.5-.6-19.9-1.1C243.8,449.9,242.3,439.7,237.9,436Z" fill="#2b2b2b"/>
        </g>
        <g id="Group_50" data-name="Group 50">
          <rect id="Rectangle_2" data-name="Rectangle 2" width="7.9" height="1.9" transform="translate(248.269 450.204) rotate(-80.723)" fill="#777070"/>
        </g>
        <g id="Group_51" data-name="Group 51">
          <rect id="Rectangle_3" data-name="Rectangle 3" width="7.6" height="1.9" transform="translate(251.649 450.248) rotate(-79.141)" fill="#777070"/>
        </g>
        <g id="Group_52" data-name="Group 52">
          <rect id="Rectangle_4" data-name="Rectangle 4" width="7" height="1.9" transform="translate(255.181 450.788) rotate(-87.367)" fill="#777070"/>
        </g>
        <g id="Group_53" data-name="Group 53">
          <rect id="Rectangle_5" data-name="Rectangle 5" width="6.1" height="1.9" transform="translate(258.301 450.514) rotate(-82.484)" fill="#777070"/>
        </g>
      </g>
      <g id="Group_54" data-name="Group 54">
        <path id="Path_62" data-name="Path 62" d="M220,431.9" fill="#e6b99b"/>
      </g>
    </g>
  </g>
</svg>
