<svg id="Layer_1" data-name="Layer 1" xmlns="http://www.w3.org/2000/svg" viewBox="0 0 1920 1080" style=""><defs><style>.cls-1{fill:none;stroke:#000;stroke-miterlimit:10;stroke-width:7px;}</style></defs><title>thanks</title><path class="cls-1 KRGqjMZg_0" d="M1264.36,530.75c-1.44-1.76-5.71-2.79-7.44.26-3.21,5.69-9.69,15.67-22.84,14.61-27.32-2.21-61.34-64-68-93.74,11.68-7.17,39-39.57,53.11-64.53s9-55.77-28.68-22.7-55,96-55,96,0-20.91,5.93-51.29c18.9-30.62,71-112.15,87.55-139.11,19.38-31.61-8-54.18-32.93-27.29-36.24,39-56.25,107.19-66.3,161.25-30.66,51.57-57.44,98.86-60.11,97.34-5.36-3.07,22.46-71.28,30.08-87.44,11.62-24.63-9.1-40.83-34.66-11.75C1027.63,445,992,509.5,992,509.5c9.16-36.11,28.32-79,35.45-91.88,5.58-10.09-7.17-13.81-13.54-3.19-4.94,8.22-18.71,35.76-28.55,62-13.95,20.24-46.95,66.68-53.51,62.94-8.37-4.78,31.47-70,37.84-74.83-4.58-11.21-18.32-6.83-32.66,11.49s-59.62,82.86-75.22,78.08,1.95-44.07,28.61-79.67c29.68-39.64,49.4-37.84,43-26.73-7.78,13.57-7.57,16.17-5.18,18s9.17,2,15.94-11.95.4-29.9-17.33-29.88c-17.27,0-50.14,32.24-72.1,74C839,521.31,803.69,582.49,796.44,578c-8.36-5.22,23.11-70.87,29.88-87.2s9.16-41.43-13.54-27.88c-24.86,14.83-53.78,57.76-81.26,102.37,40.82-120.29,70.18-194.75,81-221.46,81.5-23.9,166.93-35.94,238.3-25.18,8.23,1.24,11.82,1.8,13.54-4.44,1.9-6.85.61-8.17-10.09-11.42-26.88-8.19-115.62-12.16-234.1,22.32,6.33-16,8.39-24.17,2.14-25.91-7.17-2-8.37-4-20.32,23.1-1.22,2.79-2.61,6-4.12,9.65q-17.52,5.65-35.76,12.44c6.08-14.37,6-19.55,2.85-22.09-1.85-1.47-6.26-2.53-8.78-3.34-10.27-3.32-20.46,20.71-27.31,38.65a923.51,923.51,0,0,0-122.06,62.68c-5.8,3.54-5.86,6.53-4.12,9.56,1.46,2.55,5.58,3.66,11.55,0,31.24-19.1,68-37.66,107.78-54.1-14.68,39-51.33,137.83-61.84,193.52-12,63.34,2.58,66.89,9.17,64.73,3.85-1.26,3.78-6.77.39-8s-.59-34.66,7.77-66.93c7.61-29.34,54.46-145.91,76.18-195.77q18-6.66,36.54-12.65c-21.08,52.79-54.31,143-63.13,176-10.75,40.23-19.12,63.73-12.34,68.91S729.13,594,736.3,582.4s39.43-59,53.37-78.08S818,472.06,810.39,490s-42.63,86.44-23.51,100.38c13,9.51,38.3-24.88,53-47.72-.13,10.13,3.13,19.8,13.88,24.22,20.31,8.37,69.7-52.18,76.48-62.14-15.14,30.67-12.57,41.55-5.18,46.21,7.79,4.91,31.15-12.34,50.7-42.88-8.45,40.05,8.22,44.54,24.05,13.14,17-33.73,78.34-122.43,86.57-120.57,6,1.37-8.76,31.07-18.59,54.44s-20.74,54-4.51,60.28c8.26,3.2,20.67-10.23,32.82-27.87,10-14.58,20.38-32.83,28-46.83-4.71,37.33-2.82,53.85-2.49,57,.4,3.86.5,7.92,6.24,8.24,5.38.3,7.19-.63,7.87-4.68,3.78-22.61,17.36-65.3,44.18-107s45.85-44.33,28.41-10.09c-19.71,38.7-55.76,63.47-55.76,63.47s7.17,44.35,41.16,85.77c37.85,46.14,67.35,13.39,70.64,8.23C1268.34,535.39,1265.92,532.66,1264.36,530.75ZM1221.6,243.41c10.36,4-12.48,33.86-55.1,100.78-4.71,7.4-9.52,15.11-14.35,23C1181.74,268,1211.68,239.6,1221.6,243.41Z"></path><path class="cls-1 KRGqjMZg_1" d="M1078.5,752.91c-12.06-1.88-88.55-6.79-183,13.06,9-32.36,13.72-61,16.9-72.84,7-25.89,25.69-74.88,30.87-83.25s-8.56-9.26-12.84-5.67-11.12,11.73-15.64,19.61c-19.61,34.18-78.27,109.75-83,114.33s-17.51,16.45-14.34-4,38.84-100.38,42.82-111.93-7.57-15.93-22.91-9.36S786.69,647.33,770,659.28,738.89,674.61,737.49,672s-4.78-6.77-8.56-5a8.46,8.46,0,0,0-4.19,10.36c1.4,4,5,14.34,24.7,6.57s67.32-43,81.26-53.37,15.74-5.78,10.56,5.77c-11.42,25.46-34.87,77.8-37.92,98.38-1.85,12.56,4.75,18.56,15.21,21.72,24.05,7.25,85.84-93.61,85.84-93.61-6.72,27.25-14.29,67.36-26.95,107.19-210.65,51.54-124.63,187.33-38,105.12,25.12-23.83,41.38-61.3,52.27-96.51,70.89-14.85,155.3-16.81,182.21-14.22,6.37.61,11.69,0,12-3.72S1086,754.08,1078.5,752.91ZM827.78,867.21C761,942.87,699,829.1,873.11,783,862.18,814.32,847.78,844.55,827.78,867.21Z"></path><path class="cls-1 KRGqjMZg_2" d="M1188,607.09c-19.72,17.13-57.69,80.56-77.88,74.89s-4.38-56,5.38-76.88,20.52-34.65,13.94-37.84-11.35-2.19-27.88,28.88-55.37,100.38-70.7,94-2-51.19,5.17-64.53,27.29-40.24,18.13-44.22c-8.59-3.73-14.14,2.39-32.07,39.84-8.38,17.51-50.39,98.18-77.08,98.78s12.55-81.26,26.89-98.78,28.68-14.15,21.71,10-10.75,28.29-13.74,32.47-3,6.77,0,8.56,6.37,2.59,11.55-4.18,23.1-41.83,12.75-59.95-32.67-11.55-53.38,20.51-38.44,86-13.94,99.19,64.13-42,74.29-62.94c-2.39,24.1,8.36,43.82,29.67,37.25s49-60.35,49-60.35-9.76,42.82,15.33,53.38,74.48-61.63,83.66-74.69c7.76-11.06,17.92-11.16,19.91-3.39,1.3,5.07,5,3.79,7.17,2.59s3.59-4.78,1.6-9.76S1207.73,590,1188,607.09Z"></path><style data-made-with="vivus-instant">.KRGqjMZg_0{stroke-dasharray:6501 6503;stroke-dashoffset:6502;animation:KRGqjMZg_draw_0 6700ms linear 0ms infinite,KRGqjMZg_fade 6700ms linear 0ms infinite;}.KRGqjMZg_1{stroke-dasharray:2335 2337;stroke-dashoffset:2336;animation:KRGqjMZg_draw_1 6700ms linear 0ms infinite,KRGqjMZg_fade 6700ms linear 0ms infinite;}.KRGqjMZg_2{stroke-dasharray:1664 1666;stroke-dashoffset:1665;animation:KRGqjMZg_draw_2 6700ms linear 0ms infinite,KRGqjMZg_fade 6700ms linear 0ms infinite;}@keyframes KRGqjMZg_draw{100%{stroke-dashoffset:0;}}@keyframes KRGqjMZg_fade{0%{stroke-opacity:1;}94.02985074626866%{stroke-opacity:1;}100%{stroke-opacity:0;}}@keyframes KRGqjMZg_draw_0{4.477611940298507%{stroke-dashoffset: 6502}34.32835820895522%{ stroke-dashoffset: 0;}100%{ stroke-dashoffset: 0;}}@keyframes KRGqjMZg_draw_1{11.940298507462686%{stroke-dashoffset: 2336}41.7910447761194%{ stroke-dashoffset: 0;}100%{ stroke-dashoffset: 0;}}@keyframes KRGqjMZg_draw_2{19.402985074626866%{stroke-dashoffset: 1665}49.25373134328358%{ stroke-dashoffset: 0;}100%{ stroke-dashoffset: 0;}}</style></svg>